<?xml version="1.0" standalone="no"?>
<!DOCTYPE svg PUBLIC "-//W3C//DTD SVG 20010904//EN"
 "http://www.w3.org/TR/2001/REC-SVG-20010904/DTD/svg10.dtd">
<svg version="1.0" xmlns="http://www.w3.org/2000/svg"
 width="525.000000pt" height="475.000000pt" viewBox="0 0 525.000000 475.000000"
 preserveAspectRatio="xMidYMid meet">

<g transform="translate(0.000000,475.000000) scale(0.100000,-0.100000)"
fill="#000000" stroke="none">
<path d="M194 4490 c-65 -27 -83 -109 -35 -162 l29 -33 479 -5 c470 -5 479 -5
513 -27 19 -12 43 -35 53 -52 9 -16 46 -159 81 -318 35 -158 85 -378 109 -488
57 -249 189 -841 223 -995 14 -63 39 -171 55 -240 17 -69 50 -217 74 -330 24
-113 67 -303 94 -423 28 -120 51 -222 51 -226 0 -5 -21 -16 -47 -26 -209 -77
-343 -301 -312 -520 16 -117 53 -191 140 -277 82 -84 146 -120 239 -138 174
-33 331 12 450 130 154 153 194 391 94 569 -13 24 -24 47 -24 52 0 5 303 9
690 9 380 0 690 -2 690 -5 0 -3 -11 -27 -24 -53 -65 -131 -66 -304 -1 -439 61
-129 199 -238 334 -263 120 -22 247 -5 341 46 61 33 167 138 195 194 80 159
74 367 -15 502 -56 85 -140 153 -232 188 l-82 32 -1115 1 -1115 2 -68 300
c-37 165 -70 319 -74 342 l-7 43 1124 2 1124 3 41 22 c54 29 103 79 121 123 8
19 48 109 88 200 40 91 112 255 160 365 48 110 117 270 155 355 38 85 107 245
155 355 48 110 106 241 128 290 44 101 55 156 38 207 -15 47 -70 98 -117 109
-22 5 -779 9 -1760 9 l-1721 0 -28 133 c-46 223 -58 252 -134 328 -48 48 -82
72 -126 90 l-60 24 -475 2 c-261 1 -485 -2 -496 -7z m4700 -778 c3 -5 -24 -76
-60 -158 -36 -82 -85 -196 -110 -254 -25 -58 -69 -159 -99 -225 -29 -66 -92
-210 -140 -320 -48 -110 -115 -263 -150 -340 -34 -77 -77 -176 -95 -220 -18
-44 -41 -88 -52 -97 -19 -17 -88 -18 -1138 -18 -1057 0 -1119 1 -1124 18 -10
34 -128 550 -161 707 -19 88 -55 248 -80 355 -25 107 -54 238 -65 290 -10 52
-26 124 -34 160 -9 36 -16 75 -16 88 l0 22 1659 0 c913 0 1662 -4 1665 -8z
m-2716 -2749 c62 -29 136 -120 149 -181 40 -195 -95 -362 -291 -362 -92 0
-204 70 -249 154 -18 34 -22 58 -22 137 0 96 0 97 38 152 41 59 115 114 170
127 53 12 148 0 205 -27z m2199 6 c101 -48 166 -150 166 -258 0 -91 -30 -158
-97 -217 -114 -100 -268 -99 -383 1 -127 111 -132 294 -10 415 52 53 88 71
157 81 69 9 114 3 167 -22z"/>
</g>
</svg>